<?xml version="1.0" standalone="no"?>
<!DOCTYPE svg PUBLIC "-//W3C//DTD SVG 20010904//EN"
 "http://www.w3.org/TR/2001/REC-SVG-20010904/DTD/svg10.dtd">
<svg version="1.0" xmlns="http://www.w3.org/2000/svg"
 width="1024.000000pt" height="1024.000000pt" viewBox="0 0 1024.000000 1024.000000"
 preserveAspectRatio="xMidYMid meet">

<g transform="translate(0.000000,1024.000000) scale(0.100000,-0.100000)"
fill="#000000" stroke="none">
<path d="M5145 6613 c-110 -24 -275 -68 -310 -83 -41 -18 -48 -27 -96 -121
-28 -57 -76 -146 -107 -198 -115 -200 -158 -305 -188 -468 -3 -18 -11 -23 -34
-23 l-30 0 0 190 c0 212 -6 238 -60 260 -47 19 -95 -6 -110 -57 -8 -26 -10
-182 -8 -496 l3 -459 28 -24 c39 -33 81 -31 118 5 l29 29 0 201 0 201 180 0
179 0 42 -72 c23 -40 82 -139 130 -221 l89 -147 0 -140 0 -140 100 0 100 0 0
138 0 137 108 180 c59 99 121 199 136 223 l29 42 148 0 149 0 0 -172 c0 -95 5
-191 10 -213 13 -55 44 -78 95 -72 78 11 75 -12 75 528 l0 478 -24 27 c-31 37
-84 38 -121 4 -24 -22 -25 -29 -25 -134 0 -61 -3 -155 -7 -208 l-6 -98 -202 0
-203 0 -79 -122 c-44 -68 -101 -158 -127 -200 -27 -43 -51 -78 -55 -78 -10 1
-66 100 -67 120 -1 11 2 17 7 15 4 -3 26 25 49 62 22 38 72 116 110 175 38 59
66 110 62 112 -22 13 -107 16 -158 6 -80 -17 -121 -39 -194 -106 -33 -31 -63
-55 -65 -52 -2 2 7 33 22 68 33 83 40 173 19 270 -25 116 -17 227 23 332 l10
26 63 -23 c117 -42 141 -42 243 5 49 23 91 43 93 44 3 4 -62 165 -89 219 -20
37 -32 42 -84 30z"/>
<path d="M3996 6029 l-26 -20 0 -360 0 -360 25 -24 c15 -16 36 -25 55 -25 19
0 40 9 55 25 l25 24 0 356 0 356 -25 24 c-30 31 -73 32 -109 4z"/>
<path d="M6050 6030 c-11 -11 -22 -30 -25 -42 -3 -13 -5 -175 -3 -361 l3 -339
28 -24 c38 -32 72 -31 108 5 l29 29 0 352 0 351 -25 24 c-31 31 -86 34 -115 5z"/>
<path d="M3800 5880 c-16 -16 -20 -33 -20 -89 0 -68 -1 -69 -30 -80 -28 -9
-30 -13 -30 -63 0 -56 12 -78 42 -78 16 0 18 -9 18 -70 0 -78 19 -110 65 -110
14 0 34 9 45 20 19 19 20 33 20 235 0 202 -1 216 -20 235 -11 11 -31 20 -45
20 -14 0 -34 -9 -45 -20z m71 -17 c13 -16 12 -17 -3 -4 -10 7 -18 15 -18 17 0
8 8 3 21 -13z"/>
<path d="M6264 5886 c-18 -14 -19 -28 -19 -236 0 -221 0 -222 24 -241 29 -24
53 -24 80 -1 18 14 21 28 22 95 l1 77 28 0 c32 0 40 15 40 68 0 44 -6 54 -43
70 -26 11 -28 16 -27 65 1 28 1 60 1 69 -2 43 -66 63 -107 34z m72 -5 c-3 -5
-17 -11 -32 -14 -29 -5 -20 9 11 16 11 3 21 5 23 6 2 0 1 -3 -2 -8z m-6 -41
c0 -5 -4 -10 -10 -10 -5 0 -10 5 -10 10 0 6 5 10 10 10 6 0 10 -4 10 -10z"/>
<path d="M3455 4647 c-109 -37 -177 -95 -222 -192 -23 -51 -28 -73 -28 -145 0
-76 3 -92 33 -152 38 -77 92 -130 171 -167 50 -23 67 -26 166 -25 114 0 174
14 243 56 l32 20 0 134 0 134 -70 0 -70 0 0 -98 0 -99 -39 -11 c-89 -27 -187
-9 -244 46 -88 83 -91 231 -7 319 75 80 229 85 332 11 15 -11 24 -6 63 32 l45
44 -21 22 c-11 12 -48 35 -82 50 -52 24 -77 29 -162 31 -64 2 -115 -2 -140
-10z"/>
<path d="M5923 4653 c-15 -5 -17 -171 -6 -486 l6 -197 74 0 73 0 0 130 0 130
160 0 160 0 0 61 c0 37 -4 58 -10 54 -5 -3 -77 -3 -160 1 l-150 7 0 93 0 94
180 0 180 0 0 50 c0 28 4 50 9 50 4 0 28 -35 53 -77 24 -43 81 -140 126 -217
l82 -138 0 -119 0 -119 80 0 80 0 0 124 0 123 101 174 c55 96 112 193 125 217
l25 42 -73 0 -73 0 -89 -150 c-49 -82 -92 -147 -96 -145 -5 3 -47 70 -95 150
l-88 145 -318 0 c-174 0 -323 2 -331 4 -7 3 -19 2 -25 -1z"/>
<path d="M3910 4646 c0 -7 58 -107 154 -268 48 -81 92 -164 97 -185 5 -21 9
-80 9 -130 l0 -93 75 0 75 0 0 120 c0 110 2 124 24 158 33 51 226 390 226 397
0 3 -33 5 -72 5 l-73 0 -75 -132 c-114 -199 -92 -197 -196 -22 l-89 149 -78 3
c-42 2 -77 1 -77 -2z"/>
<path d="M4650 4310 l1 -340 69 0 70 0 0 205 c0 113 4 205 8 205 8 0 27 -34
139 -239 52 -95 52 -96 91 -96 l39 0 93 173 c50 94 96 172 101 172 5 0 9 -91
9 -210 l0 -210 70 0 70 0 0 340 0 340 -75 0 -74 0 -37 -67 c-104 -191 -185
-333 -193 -337 -4 -3 -58 87 -121 200 l-113 204 -74 0 -73 0 0 -340z"/>
<path d="M5590 4310 l0 -340 75 0 75 0 0 340 0 340 -75 0 -75 0 0 -340z"/>
<path d="M3940 3693 l0 -118 90 5 c97 5 110 12 110 61 0 29 -23 55 -40 44 -7
-4 -5 -11 5 -21 28 -29 11 -54 -44 -64 -71 -13 -89 -4 -93 45 -1 24 0 41 3 39
4 -2 9 3 13 11 3 8 1 15 -4 15 -6 0 -10 19 -10 43 0 32 -3 39 -11 27 -9 -13
-10 -13 -6 0 2 8 11 14 20 12 8 -1 18 2 22 8 4 6 -6 10 -24 10 l-31 0 0 -117z"/>
<path d="M4258 3803 c7 -3 16 -2 19 1 4 3 -2 6 -13 5 -11 0 -14 -3 -6 -6z"/>
<path d="M4680 3795 c-10 -12 -10 -15 0 -15 9 0 8 -5 -3 -18 -33 -37 -6 -79
38 -61 18 7 15 9 -17 13 -20 2 -21 36 -2 57 9 10 28 19 42 19 32 0 26 5 -15
13 -21 4 -35 1 -43 -8z m30 1 c0 -3 -4 -8 -10 -11 -5 -3 -10 -1 -10 4 0 6 5
11 10 11 6 0 10 -2 10 -4z"/>
<path d="M4890 3801 c0 -6 40 -9 95 -9 52 1 95 4 95 8 0 4 -43 8 -95 9 -56 1
-95 -2 -95 -8z"/>
<path d="M5179 3808 c-1 -2 -3 -56 -4 -120 -3 -96 0 -118 11 -118 10 0 14 12
14 40 l0 40 45 0 c41 0 46 -3 67 -40 14 -23 30 -40 41 -40 17 0 17 1 -1 28
-34 48 -44 72 -29 66 31 -11 50 47 30 89 -18 37 -22 34 -16 -12 4 -32 2 -41
-18 -55 -14 -9 -43 -16 -71 -16 l-48 0 0 64 c0 64 0 65 26 60 16 -3 23 -1 19
6 -5 8 -62 15 -66 8z"/>
<path d="M5502 3785 c-21 -17 -29 -31 -25 -42 4 -11 3 -14 -6 -9 -6 4 -10 4
-9 -1 1 -4 -1 -18 -5 -30 -5 -13 -2 -36 7 -57 40 -97 187 -98 233 -2 21 46 11
95 -28 132 l-31 29 17 -40 c31 -70 30 -99 -2 -135 -23 -26 -37 -33 -76 -35
-45 -3 -50 -1 -68 28 -30 50 -34 76 -14 113 20 38 63 59 105 51 21 -5 28 -3
24 6 -3 8 -24 14 -48 16 -34 1 -50 -4 -74 -24z m33 5 c-3 -5 -12 -10 -18 -10
-7 0 -6 4 3 10 19 12 23 12 15 0z"/>
<path d="M5810 3690 c0 -100 3 -120 15 -120 12 0 15 17 15 90 0 50 3 90 8 90
4 0 34 -37 67 -81 53 -71 81 -99 99 -99 3 0 6 54 6 120 0 99 -3 120 -15 120
-11 0 -15 -19 -17 -92 l-3 -93 -74 93 c-40 50 -79 92 -87 92 -11 0 -14 -24
-14 -120z m200 -86 c0 -8 -4 -12 -10 -9 -5 3 -10 10 -10 16 0 5 5 9 10 9 6 0
10 -7 10 -16z"/>
<path d="M6162 3785 c-22 -18 -28 -31 -25 -49 3 -13 0 -27 -6 -30 -32 -20 3
-96 55 -121 32 -15 44 -16 91 -6 l53 12 0 45 c0 25 -5 44 -11 44 -6 0 -9 -7
-5 -15 3 -8 1 -26 -4 -40 -8 -22 -15 -25 -59 -25 -43 0 -53 4 -75 31 -37 43
-35 91 4 131 25 25 37 29 69 26 25 -2 38 1 38 9 0 9 -16 13 -48 13 -36 0 -55
-6 -77 -25z"/>
<path d="M4800 3785 c0 -8 2 -15 4 -15 2 0 6 7 10 15 3 8 1 15 -4 15 -6 0 -10
-7 -10 -15z"/>
<path d="M4253 3745 c0 -27 2 -38 4 -22 2 15 2 37 0 50 -2 12 -4 0 -4 -28z"/>
<path d="M4985 3784 c-13 -5 -7 -214 6 -214 5 0 9 48 9 110 0 61 -1 110 -2
109 -2 0 -7 -2 -13 -5z"/>
<path d="M6305 3780 c-3 -6 1 -7 9 -4 18 7 21 14 7 14 -6 0 -13 -4 -16 -10z"/>
<path d="M4734 3688 c-4 -7 -3 -8 4 -4 7 4 12 3 12 -3 0 -6 6 -8 14 -5 8 3 17
0 21 -5 3 -6 10 -9 15 -6 4 3 8 -1 7 -8 0 -6 1 -23 2 -37 1 -20 3 -22 11 -9
14 24 0 58 -31 74 -34 18 -46 19 -55 3z"/>
<path d="M4251 3625 c0 -55 1 -58 14 -41 16 22 21 81 6 71 -5 -3 -12 3 -14 12
-3 10 -5 -9 -6 -42z"/>
<path d="M4656 3607 c3 -10 9 -15 12 -12 3 3 0 11 -7 18 -10 9 -11 8 -5 -6z"/>
<path d="M4783 3595 c0 -8 4 -12 9 -9 5 3 6 10 3 15 -9 13 -12 11 -12 -6z"/>
<path d="M4374 3593 c11 -11 46 -14 46 -3 0 6 -12 10 -27 10 -14 0 -23 -3 -19
-7z"/>
<path d="M4313 3583 c9 -2 25 -2 35 0 9 3 1 5 -18 5 -19 0 -27 -2 -17 -5z"/>
</g>
</svg>
